<svg width="32" height="33" viewBox="0 0 32 33" fill="none" xmlns="http://www.w3.org/2000/svg">
<circle cx="16" cy="16.5" r="16" fill="#D90429"/>
<path d="M10.702 20.534C11.11 20.21 11.296 20.06 11.26 20.084C12.436 19.112 13.36 18.314 14.032 17.69C14.716 17.066 15.292 16.412 15.76 15.728C16.228 15.044 16.462 14.378 16.462 13.73C16.462 13.238 16.348 12.854 16.12 12.578C15.892 12.302 15.55 12.164 15.094 12.164C14.638 12.164 14.278 12.338 14.014 12.686C13.762 13.022 13.636 13.502 13.636 14.126H10.666C10.69 13.106 10.906 12.254 11.314 11.57C11.734 10.886 12.28 10.382 12.952 10.058C13.636 9.734 14.392 9.572 15.22 9.572C16.648 9.572 17.722 9.938 18.442 10.67C19.174 11.402 19.54 12.356 19.54 13.532C19.54 14.816 19.102 16.01 18.226 17.114C17.35 18.206 16.234 19.274 14.878 20.318H19.738V22.82H10.702V20.534Z" fill="white"/>
</svg>
