<svg width="57" height="56" viewBox="0 0 57 56" fill="none" xmlns="http://www.w3.org/2000/svg">
<path d="M28.4999 53.1065C25.0466 53.1065 21.5699 51.7998 18.8633 49.2098C11.9799 42.5832 4.37326 32.0132 7.24326 19.4365C9.83326 8.0265 19.7966 2.9165 28.4999 2.9165C28.4999 2.9165 28.4999 2.9165 28.5233 2.9165C37.2266 2.9165 47.1899 8.0265 49.7799 19.4598C52.6266 32.0365 45.0199 42.5832 38.1366 49.2098C35.4299 51.7998 31.9533 53.1065 28.4999 53.1065ZM28.4999 6.4165C21.7099 6.4165 12.9833 10.0332 10.6733 20.2065C8.15326 31.1965 15.0599 40.6698 21.3133 46.6665C25.3499 50.5632 31.6733 50.5632 35.7099 46.6665C41.9399 40.6698 48.8466 31.1965 46.3733 20.2065C44.0399 10.0332 35.2899 6.4165 28.4999 6.4165Z" fill="white"/>
<path d="M25.5833 32.0834C25.1399 32.0834 24.6966 31.92 24.3466 31.57L20.8466 28.07C20.1699 27.3934 20.1699 26.2734 20.8466 25.5967C21.5233 24.92 22.6433 24.92 23.3199 25.5967L25.5833 27.86L33.6799 19.7634C34.3566 19.0867 35.4766 19.0867 36.1533 19.7634C36.8299 20.44 36.8299 21.56 36.1533 22.2367L26.8199 31.57C26.4699 31.92 26.0266 32.0834 25.5833 32.0834Z" fill="white"/>
</svg>
