<svg width="57" height="56" viewBox="0 0 57 56" fill="none" xmlns="http://www.w3.org/2000/svg">
<path d="M41.2167 53.0832C38.5801 53.0832 35.8034 52.4532 32.9334 51.2398C30.1334 50.0498 27.3101 48.4165 24.5567 46.4332C21.8267 44.4265 19.1901 42.1865 16.6934 39.7365C14.2201 37.2398 11.9801 34.6032 9.99675 31.8965C7.99008 29.0965 6.38008 26.2965 5.23675 23.5898C4.02341 20.6965 3.41675 17.8965 3.41675 15.2598C3.41675 13.4398 3.74341 11.7132 4.37341 10.1032C5.02675 8.4465 6.07675 6.9065 7.50008 5.5765C9.29675 3.80317 11.3501 2.9165 13.5434 2.9165C14.4534 2.9165 15.3867 3.1265 16.1801 3.49984C17.0901 3.91984 17.8601 4.54984 18.4201 5.38984L23.8334 13.0198C24.3234 13.6965 24.6967 14.3498 24.9534 15.0032C25.2567 15.7032 25.4201 16.4032 25.4201 17.0798C25.4201 17.9665 25.1634 18.8298 24.6734 19.6465C24.3234 20.2765 23.7867 20.9532 23.1101 21.6298L21.5234 23.2865C21.5467 23.3565 21.5701 23.4032 21.5934 23.4498C21.8734 23.9398 22.4334 24.7798 23.5067 26.0398C24.6501 27.3465 25.7234 28.5365 26.7967 29.6332C28.1734 30.9865 29.3167 32.0598 30.3901 32.9465C31.7201 34.0665 32.5834 34.6265 33.0967 34.8832L33.0501 34.9998L34.7534 33.3198C35.4767 32.5965 36.1767 32.0598 36.8534 31.7098C38.1367 30.9165 39.7701 30.7765 41.4034 31.4532C42.0101 31.7098 42.6634 32.0598 43.3634 32.5498L51.1101 38.0565C51.9734 38.6398 52.6034 39.3865 52.9767 40.2732C53.3267 41.1598 53.4901 41.9765 53.4901 42.7932C53.4901 43.9132 53.2334 45.0332 52.7434 46.0832C52.2534 47.1332 51.6467 48.0432 50.8767 48.8832C49.5467 50.3532 48.1001 51.4032 46.4201 52.0798C44.8101 52.7332 43.0601 53.0832 41.2167 53.0832ZM13.5434 6.4165C12.2601 6.4165 11.0701 6.9765 9.92675 8.0965C8.85341 9.09984 8.10675 10.1965 7.64008 11.3865C7.15008 12.5998 6.91675 13.8832 6.91675 15.2598C6.91675 17.4298 7.43008 19.7865 8.45675 22.2132C9.50675 24.6865 10.9767 27.2532 12.8434 29.8198C14.7101 32.3865 16.8334 34.8832 19.1667 37.2398C21.5001 39.5498 24.0201 41.6965 26.6101 43.5865C29.1301 45.4298 31.7201 46.9232 34.2867 47.9965C38.2767 49.6998 42.0101 50.0965 45.0901 48.8132C46.2801 48.3232 47.3301 47.5765 48.2867 46.5032C48.8234 45.9198 49.2434 45.2898 49.5934 44.5432C49.8734 43.9598 50.0134 43.3532 50.0134 42.7465C50.0134 42.3732 49.9434 41.9998 49.7567 41.5798C49.6867 41.4398 49.5467 41.1832 49.1034 40.8798L41.3567 35.3732C40.8901 35.0465 40.4701 34.8132 40.0734 34.6498C39.5601 34.4398 39.3501 34.2298 38.5567 34.7198C38.0901 34.9532 37.6701 35.3032 37.2034 35.7698L35.4301 37.5198C34.5201 38.4065 33.1201 38.6165 32.0467 38.2198L31.4167 37.9398C30.4601 37.4265 29.3401 36.6332 28.1034 35.5832C26.9834 34.6265 25.7701 33.5065 24.3001 32.0598C23.1567 30.8932 22.0134 29.6565 20.8234 28.2798C19.7267 26.9965 18.9334 25.8998 18.4434 24.9898L18.1634 24.2898C18.0234 23.7532 17.9767 23.4498 17.9767 23.1232C17.9767 22.2832 18.2801 21.5365 18.8634 20.9532L20.6134 19.1332C21.0801 18.6665 21.4301 18.2232 21.6634 17.8265C21.8501 17.5232 21.9201 17.2665 21.9201 17.0332C21.9201 16.8465 21.8501 16.5665 21.7334 16.2865C21.5701 15.9132 21.3134 15.4932 20.9867 15.0498L15.5734 7.3965C15.3401 7.06984 15.0601 6.8365 14.7101 6.67317C14.3367 6.50984 13.9401 6.4165 13.5434 6.4165ZM33.0501 35.0232L32.6767 36.6098L33.3067 34.9765C33.1901 34.9532 33.0967 34.9765 33.0501 35.0232Z" fill="white"/>
<path d="M43.6667 22.7502C42.71 22.7502 41.9167 21.9568 41.9167 21.0002C41.9167 20.1602 41.0767 18.4102 39.6767 16.9168C38.3 15.4468 36.7833 14.5835 35.5 14.5835C34.5433 14.5835 33.75 13.7902 33.75 12.8335C33.75 11.8768 34.5433 11.0835 35.5 11.0835C37.7633 11.0835 40.1433 12.2968 42.22 14.5135C44.1567 16.5902 45.4167 19.1335 45.4167 21.0002C45.4167 21.9568 44.6233 22.7502 43.6667 22.7502Z" fill="white"/>
<path d="M51.8333 22.7498C50.8767 22.7498 50.0833 21.9565 50.0833 20.9998C50.0833 12.9498 43.55 6.4165 35.5 6.4165C34.5433 6.4165 33.75 5.62317 33.75 4.6665C33.75 3.70984 34.5433 2.9165 35.5 2.9165C45.4633 2.9165 53.5833 11.0365 53.5833 20.9998C53.5833 21.9565 52.79 22.7498 51.8333 22.7498Z" fill="white"/>
</svg>
