<svg width="57" height="56" viewBox="0 0 57 56" fill="none" xmlns="http://www.w3.org/2000/svg">
<path d="M47.1657 27.4168H9.83235C9.29568 27.4168 8.80568 27.1835 8.47901 26.7635C8.15235 26.3668 8.01235 25.8068 8.12901 25.2935L10.7657 12.6935C11.629 8.61018 13.379 4.85352 20.309 4.85352H36.7124C43.6424 4.85352 45.3924 8.63352 46.2557 12.6935L48.8924 25.3168C49.009 25.8302 48.869 26.3668 48.5424 26.7868C48.1924 27.1835 47.7024 27.4168 47.1657 27.4168ZM11.979 23.9168H44.9957L42.8023 13.4168C42.149 10.3602 41.379 8.35352 36.689 8.35352H20.309C15.619 8.35352 14.849 10.3602 14.1957 13.4168L11.979 23.9168Z" fill="white"/>
<path d="M47.0724 53.0837H42.6857C38.9057 53.0837 38.1824 50.9137 37.7157 49.4903L37.2491 48.0903C36.6424 46.317 36.5724 46.0837 34.4724 46.0837H22.5257C20.4257 46.0837 20.2857 46.4803 19.7491 48.0903L19.2824 49.4903C18.7924 50.937 18.0924 53.0837 14.3124 53.0837H9.92573C8.08239 53.0837 6.30906 52.3137 5.07239 50.9603C3.85906 49.6303 3.27573 47.857 3.43906 46.0837L4.74573 31.8737C5.09573 28.0237 6.12239 23.917 13.6124 23.917H43.3857C50.8757 23.917 51.8791 28.0237 52.2524 31.8737L53.5591 46.0837C53.7224 47.857 53.1391 49.6303 51.9257 50.9603C50.6891 52.3137 48.9157 53.0837 47.0724 53.0837ZM22.5257 42.5837H34.4724C38.7191 42.5837 39.7224 44.4737 40.5624 46.947L41.0524 48.3937C41.4491 49.5837 41.4491 49.607 42.7091 49.607H47.0957C47.9591 49.607 48.7757 49.257 49.3591 48.627C49.9191 48.0203 50.1757 47.2503 50.1057 46.4337L48.7991 32.2237C48.4957 29.0737 48.1224 27.4403 43.4324 27.4403H13.6124C8.89906 27.4403 8.52573 29.0737 8.24573 32.2237L6.93906 46.4337C6.86906 47.2503 7.12573 48.0203 7.68573 48.627C8.24573 49.257 9.08573 49.607 9.94906 49.607H14.3357C15.5957 49.607 15.5957 49.5837 15.9924 48.417L16.4591 46.9937C17.0424 45.127 17.9057 42.5837 22.5257 42.5837Z" fill="white"/>
<path d="M9.83236 20.417H7.49902C6.54236 20.417 5.74902 19.6237 5.74902 18.667C5.74902 17.7103 6.54236 16.917 7.49902 16.917H9.83236C10.789 16.917 11.5824 17.7103 11.5824 18.667C11.5824 19.6237 10.789 20.417 9.83236 20.417Z" fill="white"/>
<path d="M49.4991 20.417H47.1658C46.2091 20.417 45.4158 19.6237 45.4158 18.667C45.4158 17.7103 46.2091 16.917 47.1658 16.917H49.4991C50.4558 16.917 51.2491 17.7103 51.2491 18.667C51.2491 19.6237 50.4558 20.417 49.4991 20.417Z" fill="white"/>
<path d="M28.499 13.4167C27.5424 13.4167 26.749 12.6233 26.749 11.6667V7C26.749 6.04333 27.5424 5.25 28.499 5.25C29.4557 5.25 30.249 6.04333 30.249 7V11.6667C30.249 12.6233 29.4557 13.4167 28.499 13.4167Z" fill="white"/>
<path d="M31.999 13.417H24.999C24.0424 13.417 23.249 12.6237 23.249 11.667C23.249 10.7103 24.0424 9.91699 24.999 9.91699H31.999C32.9557 9.91699 33.749 10.7103 33.749 11.667C33.749 12.6237 32.9557 13.417 31.999 13.417Z" fill="white"/>
<path d="M21.499 36.75H14.499C13.5424 36.75 12.749 35.9567 12.749 35C12.749 34.0433 13.5424 33.25 14.499 33.25H21.499C22.4557 33.25 23.249 34.0433 23.249 35C23.249 35.9567 22.4557 36.75 21.499 36.75Z" fill="white"/>
<path d="M42.499 36.75H35.499C34.5424 36.75 33.749 35.9567 33.749 35C33.749 34.0433 34.5424 33.25 35.499 33.25H42.499C43.4557 33.25 44.249 34.0433 44.249 35C44.249 35.9567 43.4557 36.75 42.499 36.75Z" fill="white"/>
</svg>
