<svg width="32" height="33" viewBox="0 0 32 33" fill="none" xmlns="http://www.w3.org/2000/svg">
<circle cx="16" cy="16.5" r="16" fill="#D90429"/>
<path d="M10.918 13.568C10.966 12.284 11.386 11.294 12.178 10.598C12.97 9.902 14.044 9.554 15.4 9.554C16.3 9.554 17.068 9.71 17.704 10.022C18.352 10.334 18.838 10.76 19.162 11.3C19.498 11.84 19.666 12.446 19.666 13.118C19.666 13.91 19.468 14.558 19.072 15.062C18.676 15.554 18.214 15.89 17.686 16.07V16.142C18.37 16.37 18.91 16.748 19.306 17.276C19.702 17.804 19.9 18.482 19.9 19.31C19.9 20.054 19.726 20.714 19.378 21.29C19.042 21.854 18.544 22.298 17.884 22.622C17.236 22.946 16.462 23.108 15.562 23.108C14.122 23.108 12.97 22.754 12.106 22.046C11.254 21.338 10.804 20.27 10.756 18.842H13.744C13.756 19.37 13.906 19.79 14.194 20.102C14.482 20.402 14.902 20.552 15.454 20.552C15.922 20.552 16.282 20.42 16.534 20.156C16.798 19.88 16.93 19.52 16.93 19.076C16.93 18.5 16.744 18.086 16.372 17.834C16.012 17.57 15.43 17.438 14.626 17.438H14.05V14.936H14.626C15.238 14.936 15.73 14.834 16.102 14.63C16.486 14.414 16.678 14.036 16.678 13.496C16.678 13.064 16.558 12.728 16.318 12.488C16.078 12.248 15.748 12.128 15.328 12.128C14.872 12.128 14.53 12.266 14.302 12.542C14.086 12.818 13.96 13.16 13.924 13.568H10.918Z" fill="white"/>
</svg>
